<svg width="29" height="29" viewBox="0 0 29 29" fill="none" xmlns="http://www.w3.org/2000/svg">
<path d="M27.84 0H1.16C0.518375 0 0 0.518375 0 1.16V27.84C0 28.4816 0.518375 29 1.16 29H27.84C28.4816 29 29 28.4816 29 27.84V1.16C29 0.518375 28.4816 0 27.84 0ZM24.4905 8.46437H22.1741C20.358 8.46437 20.0064 9.32712 20.0064 10.5959V13.3907H24.3419L23.7764 17.7661H20.0064V29H15.486V17.7698H11.7051V13.3907H15.486V10.1645C15.486 6.41987 17.7734 4.379 21.1156 4.379C22.7179 4.379 24.0918 4.49862 24.4941 4.553V8.46437H24.4905Z" fill="white"/>
</svg>
