<svg width="29" height="29" viewBox="0 0 29 29" fill="none" xmlns="http://www.w3.org/2000/svg">
<path d="M19.3333 14.5C19.3333 13.1658 18.8613 12.0267 17.9173 11.0827C16.9733 10.1387 15.8342 9.66667 14.5 9.66667C13.1658 9.66667 12.0267 10.1387 11.0827 11.0827C10.1387 12.0267 9.66667 13.1658 9.66667 14.5C9.66667 15.8342 10.1387 16.9733 11.0827 17.9173C12.0267 18.8613 13.1658 19.3333 14.5 19.3333C15.8342 19.3333 16.9733 18.8613 17.9173 17.9173C18.8613 16.9733 19.3333 15.8342 19.3333 14.5ZM21.9388 14.5C21.9388 16.5642 21.2151 18.3201 19.7676 19.7676C18.3201 21.2151 16.5642 21.9388 14.5 21.9388C12.4358 21.9388 10.6799 21.2151 9.23242 19.7676C7.78494 18.3201 7.0612 16.5642 7.0612 14.5C7.0612 12.4358 7.78494 10.6799 9.23242 9.23242C10.6799 7.78494 12.4358 7.0612 14.5 7.0612C16.5642 7.0612 18.3201 7.78494 19.7676 9.23242C21.2151 10.6799 21.9388 12.4358 21.9388 14.5ZM23.9779 6.75911C23.9779 7.23741 23.8079 7.64648 23.4681 7.98633C23.1283 8.32617 22.7192 8.49609 22.2409 8.49609C21.7626 8.49609 21.3535 8.32617 21.0137 7.98633C20.6738 7.64648 20.5039 7.23741 20.5039 6.75911C20.5039 6.28082 20.6738 5.87175 21.0137 5.5319C21.3535 5.19206 21.7626 5.02214 22.2409 5.02214C22.7192 5.02214 23.1283 5.19206 23.4681 5.5319C23.8079 5.87175 23.9779 6.28082 23.9779 6.75911ZM14.5 2.60547C14.4119 2.60547 13.9304 2.60232 13.0557 2.59603C12.1809 2.58974 11.5169 2.58974 11.0638 2.59603C10.6107 2.60232 10.0034 2.6212 9.24186 2.65267C8.48036 2.68414 7.83214 2.74707 7.2972 2.84147C6.76226 2.93587 6.31228 3.0523 5.94727 3.19076C5.31793 3.44249 4.76411 3.80751 4.28581 4.28581C3.80751 4.76411 3.44249 5.31793 3.19076 5.94727C3.0523 6.31228 2.93587 6.76226 2.84147 7.2972C2.74707 7.83214 2.68414 8.48036 2.65267 9.24186C2.6212 10.0034 2.60232 10.6107 2.59603 11.0638C2.58974 11.5169 2.58974 12.1809 2.59603 13.0557C2.60232 13.9304 2.60547 14.4119 2.60547 14.5C2.60547 14.5881 2.60232 15.0696 2.59603 15.9443C2.58974 16.8191 2.58974 17.4831 2.59603 17.9362C2.60232 18.3893 2.6212 18.9966 2.65267 19.7581C2.68414 20.5196 2.74707 21.1679 2.84147 21.7028C2.93587 22.2377 3.0523 22.6877 3.19076 23.0527C3.44249 23.6821 3.80751 24.2359 4.28581 24.7142C4.76411 25.1925 5.31793 25.5575 5.94727 25.8092C6.31228 25.9477 6.76226 26.0641 7.2972 26.1585C7.83214 26.2529 8.48036 26.3159 9.24186 26.3473C10.0034 26.3788 10.6107 26.3977 11.0638 26.404C11.5169 26.4103 12.1809 26.4103 13.0557 26.404C13.9304 26.3977 14.4119 26.3945 14.5 26.3945C14.5881 26.3945 15.0696 26.3977 15.9443 26.404C16.8191 26.4103 17.4831 26.4103 17.9362 26.404C18.3893 26.3977 18.9966 26.3788 19.7581 26.3473C20.5196 26.3159 21.1679 26.2529 21.7028 26.1585C22.2377 26.0641 22.6877 25.9477 23.0527 25.8092C23.6821 25.5575 24.2359 25.1925 24.7142 24.7142C25.1925 24.2359 25.5575 23.6821 25.8092 23.0527C25.9477 22.6877 26.0641 22.2377 26.1585 21.7028C26.2529 21.1679 26.3159 20.5196 26.3473 19.7581C26.3788 18.9966 26.3977 18.3893 26.404 17.9362C26.4103 17.4831 26.4103 16.8191 26.404 15.9443C26.3977 15.0696 26.3945 14.5881 26.3945 14.5C26.3945 14.4119 26.3977 13.9304 26.404 13.0557C26.4103 12.1809 26.4103 11.5169 26.404 11.0638C26.3977 10.6107 26.3788 10.0034 26.3473 9.24186C26.3159 8.48036 26.2529 7.83214 26.1585 7.2972C26.0641 6.76226 25.9477 6.31228 25.8092 5.94727C25.5575 5.31793 25.1925 4.76411 24.7142 4.28581C24.2359 3.80751 23.6821 3.44249 23.0527 3.19076C22.6877 3.0523 22.2377 2.93587 21.7028 2.84147C21.1679 2.74707 20.5196 2.68414 19.7581 2.65267C18.9966 2.6212 18.3893 2.60232 17.9362 2.59603C17.4831 2.58974 16.8191 2.58974 15.9443 2.59603C15.0696 2.60232 14.5881 2.60547 14.5 2.60547ZM29 14.5C29 17.3824 28.9685 19.3774 28.9056 20.485C28.7797 23.1031 27.9993 25.1296 26.5645 26.5645C25.1296 27.9993 23.1031 28.7797 20.485 28.9056C19.3774 28.9685 17.3824 29 14.5 29C11.6176 29 9.62261 28.9685 8.51497 28.9056C5.89692 28.7797 3.87044 27.9993 2.43555 26.5645C1.00065 25.1296 0.220269 23.1031 0.094401 20.485C0.031467 19.3774 0 17.3824 0 14.5C0 11.6176 0.031467 9.62261 0.094401 8.51497C0.220269 5.89692 1.00065 3.87044 2.43555 2.43555C3.87044 1.00065 5.89692 0.220269 8.51497 0.094401C9.62261 0.031467 11.6176 0 14.5 0C17.3824 0 19.3774 0.031467 20.485 0.094401C23.1031 0.220269 25.1296 1.00065 26.5645 2.43555C27.9993 3.87044 28.7797 5.89692 28.9056 8.51497C28.9685 9.62261 29 11.6176 29 14.5Z" fill="white"/>
</svg>
