<svg width="29" height="29" viewBox="0 0 29 29" fill="none" xmlns="http://www.w3.org/2000/svg">
<path d="M27.84 0H1.16C0.518375 0 0 0.518375 0 1.16V27.84C0 28.4816 0.518375 29 1.16 29H27.84C28.4816 29 29 28.4816 29 27.84V1.16C29 0.518375 28.4816 0 27.84 0ZM8.60212 24.7116H4.29925V10.8714H8.60212V24.7116ZM6.4525 8.97913C5.95923 8.97913 5.47704 8.83285 5.06691 8.55881C4.65677 8.28477 4.33711 7.89526 4.14834 7.43954C3.95958 6.98382 3.91019 6.48236 4.00642 5.99857C4.10265 5.51478 4.34018 5.07039 4.68898 4.7216C5.03777 4.37281 5.48216 4.13528 5.96594 4.03905C6.44973 3.94281 6.95119 3.9922 7.40691 4.18097C7.86263 4.36973 8.25214 4.6894 8.52619 5.09953C8.80023 5.50967 8.9465 5.99186 8.9465 6.48512C8.94287 7.86262 7.82637 8.97913 6.4525 8.97913ZM24.7116 24.7116H20.4124V17.98C20.4124 16.3741 20.3834 14.3115 18.1758 14.3115C15.9391 14.3115 15.5948 16.0587 15.5948 17.864V24.7116H11.2991V10.8714H15.4244V12.7636H15.4824C16.0551 11.6761 17.458 10.527 19.5533 10.527C23.9105 10.527 24.7116 13.3944 24.7116 17.1209V24.7116V24.7116Z" fill="white"/>
</svg>
