<svg width="205" height="80" viewBox="0 0 205 104" fill="none" xmlns="http://www.w3.org/2000/svg">
<path d="M40.8831 61.3212C39.0863 61.3183 37.3617 60.6136 36.0773 59.3574L30.6168 53.8851V41.1469C30.6168 39.3229 31.3406 37.5733 32.6295 36.2823C33.9184 34.9912 35.667 34.2642 37.4916 34.2607H51.1495V53.8982L45.5973 59.436C44.3255 60.645 42.6381 61.3198 40.8831 61.3212Z" fill="#DD1600"/>
<path d="M66.993 62.356H60.1182L59.1754 64.5423H55.4826L62.9991 47.4315H64.1645L71.6286 64.5423H67.9358L66.993 62.356ZM63.5621 53.8464L61.3229 59.5282H65.8013L63.5621 53.8464Z" fill="#282828"/>
<path d="M88.9145 51.6075L86.2955 53.4404C85.8193 52.5807 85.1208 51.8647 84.2731 51.3672C83.4254 50.8698 82.4596 50.6092 81.4766 50.6126C80.011 50.6126 78.6055 51.1946 77.5691 52.2307C76.5328 53.2668 75.9506 54.672 75.9506 56.1373C75.9506 57.6025 76.5328 59.0077 77.5691 60.0438C78.6055 61.0799 80.011 61.6619 81.4766 61.6619C82.4596 61.6653 83.4254 61.4047 84.2731 60.9073C85.1208 60.4098 85.8193 59.6938 86.2955 58.8341L88.9145 60.667C88.1665 61.9688 87.0804 63.0443 85.771 63.7794C84.4617 64.5146 82.9778 64.8822 81.4766 64.8432C79.1671 64.8432 76.9522 63.926 75.3191 62.2933C73.686 60.6606 72.7686 58.4462 72.7686 56.1373C72.7686 53.8283 73.686 51.6139 75.3191 49.9812C76.9522 48.3485 79.1671 47.4313 81.4766 47.4313C82.9771 47.3966 84.4593 47.7659 85.7679 48.5007C87.0765 49.2354 88.1633 50.3085 88.9145 51.6075Z" fill="#282828"/>
<path d="M101.486 62.356H94.6115L93.6686 64.5423H89.9759L97.4923 47.4315H98.6316L106.069 64.5423H102.429L101.486 62.356ZM98.0554 53.8464L95.8162 59.5282H100.295L98.0554 53.8464Z" fill="#282828"/>
<path d="M123.092 56.0844C123.092 61.0461 119.321 64.5416 113.926 64.5416H108.426V47.745H113.926C119.308 47.745 123.092 51.0572 123.092 56.0844ZM111.857 50.8477V61.4389H113.926C114.657 61.4959 115.392 61.3988 116.084 61.1538C116.775 60.9088 117.407 60.5214 117.939 60.0166C118.471 59.5119 118.891 58.901 119.172 58.2236C119.453 57.5462 119.589 56.8174 119.57 56.0844C119.57 52.7853 117.304 50.8477 113.926 50.8477H111.857Z" fill="#282828"/>
<path d="M137.273 50.8477H129.416V54.2515H135.191V57.1841H129.416V61.4389H137.587V64.5416H125.972V47.745H137.273V50.8477Z" fill="#282828"/>
<path d="M157.008 47.4315V64.5423H153.564V55.5745L149.347 60.8112H148.221L143.991 55.5745V64.5423H140.56V47.4315H141.687L148.784 56.5171L155.829 47.4315H157.008Z" fill="#282828"/>
<path d="M168.609 57.9172V64.5416H165.178V57.9958L159.364 47.7974H163.187L166.906 54.461L170.599 47.7974H174.383L168.609 57.9172Z" fill="#282828"/>
<path d="M64.9366 43.4115L62.8545 40.5837H61.6367V43.4376H59.9606V35.347H63.0117C63.38 35.3044 63.7532 35.3404 64.1066 35.4528C64.46 35.5651 64.7855 35.7512 65.0615 35.9987C65.3376 36.2463 65.5579 36.5496 65.7079 36.8886C65.858 37.2276 65.9343 37.5946 65.9318 37.9653C65.9406 38.4459 65.8106 38.9188 65.5575 39.3275C65.3043 39.7361 64.9387 40.0632 64.5045 40.2695L66.783 43.4115H64.9366ZM61.6236 39.0912H63.0117C63.1742 39.1085 63.3386 39.0914 63.4941 39.0411C63.6496 38.9907 63.7927 38.9083 63.9143 38.799C64.0358 38.6897 64.133 38.5561 64.1996 38.4069C64.2661 38.2576 64.3005 38.096 64.3005 37.9326C64.3005 37.7692 64.2661 37.6076 64.1996 37.4583C64.133 37.3091 64.0358 37.1755 63.9143 37.0662C63.7927 36.9569 63.6496 36.8745 63.4941 36.8241C63.3386 36.7738 63.1742 36.7567 63.0117 36.774H61.6236V39.0912Z" fill="#282828"/>
<path d="M74.5102 36.8005H70.7127V38.45H73.5019V39.8639H70.7127V41.8931H74.6411V43.3856H69.0496V35.3473H74.5102V36.8005Z" fill="#282828"/>
<path d="M82.6544 36.8005H78.9747V38.8297H81.9865V40.3352H78.9747V43.4118H77.2593V35.3473H82.602L82.6544 36.8005Z" fill="#282828"/>
<path d="M86.7791 41.8931H90.354V43.3856H85.1161V35.3473H86.7791V41.8931Z" fill="#282828"/>
<path d="M98.2107 36.8005H94.4132V38.45H97.2024V39.8639H94.4394V41.8931H98.3679V43.3856H92.7764V35.3473H98.2107V36.8005Z" fill="#282828"/>
<path d="M108.295 37.1676L106.986 38.0579C106.771 37.6488 106.452 37.3038 106.062 37.0578C105.671 36.8118 105.221 36.6735 104.76 36.6571C104.053 36.6571 103.375 36.9377 102.875 37.4374C102.376 37.937 102.095 38.6146 102.095 39.3212C102.095 40.0278 102.376 40.7054 102.875 41.205C103.375 41.7047 104.053 41.9854 104.76 41.9854C105.228 41.9942 105.69 41.8774 106.097 41.6472C106.505 41.4169 106.844 41.0816 107.078 40.6762L108.387 41.5664C108.018 42.1937 107.485 42.7097 106.847 43.0599C106.209 43.4102 105.488 43.5817 104.76 43.5564C104.189 43.5882 103.618 43.5034 103.081 43.3069C102.544 43.1105 102.053 42.8066 101.637 42.4138C101.222 42.0211 100.891 41.5477 100.665 41.0227C100.438 40.4977 100.322 39.9321 100.322 39.3605C100.322 38.7889 100.438 38.2233 100.665 37.6983C100.891 37.1733 101.222 36.6999 101.637 36.3072C102.053 35.9144 102.544 35.6105 103.081 35.414C103.618 35.2176 104.189 35.1327 104.76 35.1646C105.473 35.1571 106.176 35.3384 106.797 35.6902C107.418 36.042 107.935 36.5517 108.295 37.1676Z" fill="#282828"/>
<path d="M117.029 36.8005H114.41V43.3463H112.76V36.8005H110.141V35.3473H117.002L117.029 36.8005Z" fill="#282828"/>
<path d="M127.321 39.367C127.344 40.2255 127.111 41.0715 126.651 41.797C126.192 42.5225 125.526 43.0945 124.74 43.44C123.953 43.7855 123.081 43.8888 122.236 43.7367C121.39 43.5846 120.609 43.184 119.993 42.5861C119.376 41.9882 118.952 41.2201 118.774 40.3799C118.596 39.5397 118.672 38.6655 118.993 37.869C119.315 37.0724 119.866 36.3897 120.577 35.908C121.289 35.4263 122.127 35.1675 122.986 35.1646C123.548 35.1506 124.108 35.2488 124.631 35.4535C125.155 35.6581 125.632 35.965 126.036 36.3563C126.439 36.7476 126.761 37.2153 126.982 37.7323C127.202 38.2492 127.318 38.8049 127.321 39.367ZM120.394 39.367C120.394 39.8848 120.547 40.3911 120.835 40.8216C121.123 41.2522 121.532 41.5878 122.01 41.786C122.489 41.9842 123.016 42.036 123.524 41.935C124.032 41.834 124.498 41.5846 124.865 41.2184C125.231 40.8522 125.48 40.3857 125.581 39.8778C125.682 39.3699 125.63 38.8434 125.432 38.365C125.234 37.8865 124.898 37.4776 124.468 37.1899C124.037 36.9022 123.531 36.7486 123.013 36.7486C122.665 36.7358 122.319 36.7947 121.995 36.9218C121.672 37.0488 121.378 37.2412 121.132 37.487C120.886 37.7327 120.694 38.0265 120.567 38.35C120.44 38.6735 120.381 39.0197 120.394 39.367Z" fill="#282828"/>
<path d="M134.878 43.4115L132.822 40.5837H131.604V43.4376H129.941V35.347H132.992C133.36 35.3044 133.734 35.3404 134.087 35.4528C134.44 35.5651 134.766 35.7512 135.042 35.9987C135.318 36.2463 135.538 36.5496 135.688 36.8886C135.838 37.2276 135.915 37.5946 135.912 37.9653C135.921 38.4459 135.791 38.9188 135.538 39.3275C135.285 39.7361 134.919 40.0632 134.485 40.2695L136.789 43.4507L134.878 43.4115ZM131.565 39.0912H132.953C133.115 39.1085 133.28 39.0914 133.435 39.0411C133.591 38.9907 133.734 38.9083 133.855 38.799C133.977 38.6897 134.074 38.5561 134.141 38.4069C134.207 38.2576 134.242 38.096 134.242 37.9326C134.242 37.7692 134.207 37.6076 134.141 37.4583C134.074 37.3091 133.977 37.1755 133.855 37.0662C133.734 36.9569 133.591 36.8745 133.435 36.8241C133.28 36.7738 133.115 36.7567 132.953 36.774H131.604L131.565 39.0912Z" fill="#282828"/>
<path d="M40.8826 40.7809L42.3231 43.7004L45.5575 44.1717L43.2135 46.4496L43.7635 49.6702L40.8826 48.1515L38.0018 49.6702L38.5517 46.4496L36.2078 44.1717L39.4422 43.7004L40.8826 40.7809Z" fill="white"/>
</svg>
