<svg width="19" height="15" viewBox="0 0 19 15" fill="none" xmlns="http://www.w3.org/2000/svg">
<path d="M6.87445 7.00391C6.87445 7.64208 7.12797 8.25412 7.57923 8.70538C8.03049 9.15664 8.64252 9.41016 9.2807 9.41016C9.91888 9.41016 10.5309 9.15664 10.9822 8.70538C11.4334 8.25412 11.687 7.64208 11.687 7.00391C11.687 6.36573 11.4334 5.75369 10.9822 5.30243C10.5309 4.85117 9.91888 4.59766 9.2807 4.59766C8.64252 4.59766 8.03049 4.85117 7.57923 5.30243C7.12797 5.75369 6.87445 6.36573 6.87445 7.00391ZM18.6092 6.44961C16.5725 2.15918 13.4938 0 9.36664 0C5.23734 0 2.16078 2.15918 0.124062 6.45176C0.0423686 6.62474 0 6.81367 0 7.00498C0 7.19629 0.0423686 7.38522 0.124062 7.5582C2.16078 11.8486 5.23949 14.0078 9.36664 14.0078C13.4959 14.0078 16.5725 11.8486 18.6092 7.55606C18.7746 7.20801 18.7746 6.8041 18.6092 6.44961ZM9.2807 10.7852C7.19242 10.7852 5.49945 9.09219 5.49945 7.00391C5.49945 4.91563 7.19242 3.22266 9.2807 3.22266C11.369 3.22266 13.062 4.91563 13.062 7.00391C13.062 9.09219 11.369 10.7852 9.2807 10.7852Z" fill="#363636"/>
</svg>
