<svg width="267" height="270" viewBox="0 0 267 270" fill="none" xmlns="http://www.w3.org/2000/svg">
<path d="M265.5 136.5C265.5 209.402 206.402 268.5 133.5 268.5C60.5984 268.5 1.5 209.402 1.5 136.5C1.5 63.5984 60.5984 4.5 133.5 4.5C206.402 4.5 265.5 63.5984 265.5 136.5Z" fill="white" stroke="#061673" stroke-width="3"/>
<mask id="mask0" mask-type="alpha" maskUnits="userSpaceOnUse" x="0" y="0" width="267" height="267">
<circle cx="133.5" cy="133.5" r="133.5" fill="white"/>
</mask>
<g mask="url(#mask0)">
<mask id="path-3-inside-1" fill="white">
<path fill-rule="evenodd" clip-rule="evenodd" d="M164.062 185.378C183.557 174.318 196.709 153.375 196.709 129.36C196.709 93.8152 167.894 65 132.349 65C96.8034 65 67.9883 93.8152 67.9883 129.36C67.9883 153.375 81.1407 174.318 100.635 185.378H96.593C63.6807 185.378 37 212.059 37 244.971V270H228.89V244.971C228.89 212.059 202.209 185.378 169.297 185.378H164.062Z"/>
</mask>
<path d="M164.062 185.378L162.582 182.769L152.695 188.378H164.062V185.378ZM100.635 185.378V188.378H112.002L102.115 182.769L100.635 185.378ZM37 270H34V273H37V270ZM228.89 270V273H231.89V270H228.89ZM193.709 129.36C193.709 152.252 181.176 172.219 162.582 182.769L165.543 187.987C185.938 176.416 199.709 154.498 199.709 129.36H193.709ZM132.349 68C166.237 68 193.709 95.472 193.709 129.36H199.709C199.709 92.1583 169.551 62 132.349 62V68ZM70.9883 129.36C70.9883 95.472 98.4603 68 132.349 68V62C95.1466 62 64.9883 92.1583 64.9883 129.36H70.9883ZM102.115 182.769C83.522 172.219 70.9883 152.252 70.9883 129.36H64.9883C64.9883 154.498 78.7594 176.416 99.1547 187.987L102.115 182.769ZM96.593 188.378H100.635V182.378H96.593V188.378ZM40 244.971C40 213.716 65.3376 188.378 96.593 188.378V182.378C62.0238 182.378 34 210.402 34 244.971H40ZM40 270V244.971H34V270H40ZM228.89 267H37V273H228.89V267ZM225.89 244.971V270H231.89V244.971H225.89ZM169.297 188.378C200.552 188.378 225.89 213.715 225.89 244.971H231.89C231.89 210.402 203.866 182.378 169.297 182.378V188.378ZM164.062 188.378H169.297V182.378H164.062V188.378Z" fill="#061673" mask="url(#path-3-inside-1)"/>
</g>
</svg>
