<svg width="114" height="21" viewBox="0 0 114 21" fill="none" xmlns="http://www.w3.org/2000/svg">
<path d="M10.6071 0.304443L13.6404 6.93639L20.4513 8.00702L15.5155 13.1817L16.6736 20.4977L10.6071 17.0479L4.54069 20.4977L5.69883 13.1817L0.762939 8.00702L7.57392 6.93639L10.6071 0.304443Z" fill="#061673"/>
<path d="M34.3354 0.304443L37.3686 6.93639L44.1796 8.00702L39.2437 13.1817L40.4019 20.4977L34.3354 17.0479L28.269 20.4977L29.4271 13.1817L24.4912 8.00702L31.3022 6.93639L34.3354 0.304443Z" fill="#061673"/>
<path d="M58.0615 0.304443L61.0947 6.93639L67.9057 8.00702L62.9698 13.1817L64.1279 20.4977L58.0615 17.0479L51.995 20.4977L53.1532 13.1817L48.2173 8.00702L55.0283 6.93639L58.0615 0.304443Z" fill="#061673"/>
<path d="M81.7853 0.304443L84.8186 6.93639L91.6295 8.00702L86.6936 13.1817L87.8518 20.4977L81.7853 17.0479L75.7189 20.4977L76.877 13.1817L71.9411 8.00702L78.7521 6.93639L81.7853 0.304443Z" fill="#061673"/>
<path d="M104 0.304443L107.033 6.93639L113.844 8.00702L108.908 13.1817L110.066 20.4977L104 17.0479L97.9334 20.4977L99.0916 13.1817L94.1557 8.00702L100.967 6.93639L104 0.304443Z" fill="#061673"/>
</svg>
