<svg width="29" height="29" viewBox="0 0 29 29" fill="none" xmlns="http://www.w3.org/2000/svg">
<path d="M27.84 0H1.16C0.518375 0 0 0.518375 0 1.16V27.84C0 28.4816 0.518375 29 1.16 29H27.84C28.4816 29 29 28.4816 29 27.84V1.16C29 0.518375 28.4816 0 27.84 0ZM22.3046 10.5016C22.3155 10.672 22.3155 10.8496 22.3155 11.0236C22.3155 16.3451 18.2627 22.475 10.8569 22.475C8.57312 22.475 6.45612 21.8116 4.67262 20.6698C4.99887 20.706 5.31063 20.7205 5.64413 20.7205C7.52913 20.7205 9.26187 20.0825 10.643 19.0023C8.874 18.966 7.38775 17.806 6.88025 16.211C7.50012 16.3016 8.05837 16.3016 8.69637 16.1385C7.78551 15.9534 6.9668 15.4587 6.37933 14.7385C5.79187 14.0182 5.47189 13.1167 5.47375 12.1873V12.1365C6.00662 12.4374 6.63375 12.6222 7.28988 12.6476C6.7383 12.28 6.28596 11.782 5.97295 11.1977C5.65995 10.6135 5.49595 9.96096 5.4955 9.29812C5.4955 8.54775 5.69125 7.86262 6.04288 7.26812C7.0539 8.51272 8.3155 9.53064 9.74568 10.2557C11.1759 10.9808 12.7426 11.3968 14.3441 11.4767C13.775 8.73987 15.8195 6.525 18.2773 6.525C19.4373 6.525 20.4812 7.01075 21.2171 7.79375C22.127 7.62337 22.997 7.28262 23.7727 6.82587C23.4719 7.7575 22.8411 8.54412 22.0037 9.04075C22.8157 8.95375 23.5987 8.729 24.3237 8.41362C23.7764 9.21837 23.0912 9.9325 22.3046 10.5016V10.5016Z" fill="white"/>
</svg>
