<svg width="43" height="29" viewBox="0 0 43 29" fill="none" xmlns="http://www.w3.org/2000/svg">
<path d="M41.1724 4.5301C40.933 3.65288 40.4637 2.85292 39.8114 2.21026C39.1591 1.5676 38.3467 1.1048 37.4555 0.868153C34.175 1.78814e-07 21.025 0 21.025 0C21.025 0 7.87499 -1.78814e-07 4.59453 0.863535C3.70294 1.09941 2.89011 1.56196 2.23769 2.20474C1.58526 2.84751 1.1162 3.64789 0.877606 4.52548C-1.78814e-07 7.75796 0 14.5 0 14.5C0 14.5 -1.78814e-07 21.242 0.877606 24.4699C1.36099 26.2524 2.78769 27.6562 4.59453 28.1318C7.87499 29 21.025 29 21.025 29C21.025 29 34.175 29 37.4555 28.1318C39.267 27.6562 40.689 26.2524 41.1724 24.4699C42.05 21.242 42.05 14.5 42.05 14.5C42.05 14.5 42.05 7.75796 41.1724 4.5301ZM16.8482 20.6879V8.3121L27.7361 14.4538L16.8482 20.6879Z" fill="white"/>
</svg>
