<svg width="20" height="17" viewBox="0 0 20 17" fill="none" xmlns="http://www.w3.org/2000/svg">
<path d="M4.99992 14.8333H14.9999V6.63081L9.99992 2.08581L4.99992 6.63081V14.8333ZM15.8332 16.5H4.16658C3.94557 16.5 3.73361 16.4122 3.57733 16.2559C3.42105 16.0996 3.33325 15.8877 3.33325 15.6666V8.16664H0.833252L9.43908 0.343307C9.59251 0.203706 9.79249 0.126343 9.99992 0.126343C10.2073 0.126343 10.4073 0.203706 10.5608 0.343307L19.1666 8.16664H16.6666V15.6666C16.6666 15.8877 16.5788 16.0996 16.4225 16.2559C16.2662 16.4122 16.0543 16.5 15.8332 16.5ZM6.66658 7.33331C8.21368 7.33331 9.69741 7.94789 10.7914 9.04185C11.8853 10.1358 12.4999 11.6195 12.4999 13.1666H10.8333C10.8333 12.0616 10.3943 11.0018 9.61286 10.2204C8.83146 9.43896 7.77165 8.99997 6.66658 8.99997V7.33331ZM6.66658 10.6666C7.32963 10.6666 7.96551 10.93 8.43435 11.3989C8.90319 11.8677 9.16658 12.5036 9.16658 13.1666H6.66658V10.6666Z" fill="#3298DB"/>
</svg>
