<svg width="18" height="14" viewBox="0 0 18 14" fill="none" xmlns="http://www.w3.org/2000/svg">
<path d="M13.1667 4.49996V2.83329C13.1667 2.39127 12.9911 1.96734 12.6785 1.65478C12.366 1.34222 11.942 1.16663 11.5 1.16663H3.16667C2.72464 1.16663 2.30072 1.34222 1.98816 1.65478C1.67559 1.96734 1.5 2.39127 1.5 2.83329V7.83329C1.5 8.27532 1.67559 8.69924 1.98816 9.0118C2.30072 9.32437 2.72464 9.49996 3.16667 9.49996H4.83333L13.1667 4.49996ZM6.5 12.8333H14.8333C15.2754 12.8333 15.6993 12.6577 16.0118 12.3451C16.3244 12.0326 16.5 11.6087 16.5 11.1666V6.16663C16.5 5.7246 16.3244 5.30068 16.0118 4.98812C15.6993 4.67555 15.2754 4.49996 14.8333 4.49996H6.5C6.05797 4.49996 5.63405 4.67555 5.32149 4.98812C5.00893 5.30068 4.83333 5.7246 4.83333 6.16663V11.1666C4.83333 11.6087 5.00893 12.0326 5.32149 12.3451C5.63405 12.6577 6.05797 12.8333 6.5 12.8333ZM12.3333 8.66663C12.3333 9.10865 12.1577 9.53258 11.8452 9.84514C11.5326 10.1577 11.1087 10.3333 10.6667 10.3333C10.2246 10.3333 9.80072 10.1577 9.48816 9.84514C9.17559 9.53258 9 9.10865 9 8.66663C9 8.2246 9.17559 7.80068 9.48816 7.48812C9.80072 7.17556 10.2246 6.99996 10.6667 6.99996C11.1087 6.99996 11.5326 7.17556 11.8452 7.48812C12.1577 7.80068 12.3333 8.2246 12.3333 8.66663V8.66663Z" stroke="#3298DB" stroke-width="1.25" stroke-linecap="round" stroke-linejoin="round"/>
</svg>
